<?xml version="1.0" encoding="UTF-8" standalone="no"?>
<!-- Created with Inkscape (http://www.inkscape.org/) -->

<svg
   width="100px"
   height="100px"
   viewBox="0 0 100 100"
   version="1.1"
   id="SVGRoot"
   sodipodi:docname="diary_icon.svg"
   xml:space="preserve"
   inkscape:version="1.2.2 (732a01da63, 2022-12-09)"
   xmlns:inkscape="http://www.inkscape.org/namespaces/inkscape"
   xmlns:sodipodi="http://sodipodi.sourceforge.net/DTD/sodipodi-0.dtd"
   xmlns="http://www.w3.org/2000/svg"
   xmlns:svg="http://www.w3.org/2000/svg"><sodipodi:namedview
     id="namedview526"
     pagecolor="#ffffff"
     bordercolor="#000000"
     borderopacity="0.25"
     inkscape:showpageshadow="2"
     inkscape:pageopacity="0.0"
     inkscape:pagecheckerboard="0"
     inkscape:deskcolor="#d1d1d1"
     inkscape:document-units="px"
     showgrid="true"
     inkscape:zoom="4.1020923"
     inkscape:cx="28.156363"
     inkscape:cy="36.444816"
     inkscape:window-width="2400"
     inkscape:window-height="1271"
     inkscape:window-x="2391"
     inkscape:window-y="-9"
     inkscape:window-maximized="1"
     inkscape:current-layer="layer1"><inkscape:grid
       type="xygrid"
       id="grid653" /></sodipodi:namedview><defs
     id="defs521"><filter
       inkscape:collect="always"
       style="color-interpolation-filters:sRGB"
       id="filter3693"
       x="-0.017810586"
       y="-0.016767942"
       width="1.0356212"
       height="1.0335359"><feGaussianBlur
         inkscape:collect="always"
         stdDeviation="0.59339528"
         id="feGaussianBlur3695" /></filter></defs><g
     inkscape:label="Ebene 1"
     inkscape:groupmode="layer"
     id="layer1"><path
       style="display:none;mix-blend-mode:normal;fill:#ededee;fill-opacity:1;stroke-width:0.0913229;filter:url(#filter3693)"
       d="M 21.000002,88.747373 19.269233,88.681463 18.46588,88.49491 C 16.838119,88.116915 15.366091,87.495338 14.128511,86.663415 L 13.403848,86.176283 12.65403,85.465012 11.904212,84.75374 11.374026,84.02004 C 10.760799,83.171425 10.412343,82.509478 9.8462104,81.117716 l -0.405737,-0.997449 -0.05398,-24.372449 -0.05398,-24.372449 0.08244,-4.336734 0.08244,-4.336735 0.10786,-1.040816 c 0.05932,-0.572449 0.170315,-1.287453 0.246648,-1.588898 l 0.138788,-0.548081 0.3224936,-0.629621 c 0.177372,-0.346292 0.505004,-0.911508 0.728071,-1.256037 l 0.405576,-0.626415 0.700912,-0.759644 0.700913,-0.759643 0.758361,-0.551195 c 1.328274,-0.96542 2.816563,-1.717473 4.10288,-2.073243 l 0.652211,-0.180389 1.222789,-0.08727 1.222789,-0.08727 7.259625,-0.08535 c 3.992788,-0.04694 8.455512,-0.109431 9.917163,-0.138867 l 2.657548,-0.05352 0.06275,0.09158 0.06275,0.09158 -0.567097,1.108385 c -0.311904,0.609612 -0.796084,1.54748 -1.075955,2.084151 l -0.508861,0.975771 H 30.793382 22.971156 V 41.870271 67.153435 H 51.81731 80.663463 V 59.260577 51.36772 l -3.67788,-0.0031 c -2.02284,-0.0017 -4.589673,-0.03729 -5.704076,-0.07913 L 69.25532,51.20945 68.914533,51.081009 68.573747,50.952568 68.04678,50.227744 c -1.038779,-1.428804 -3.322,-5.302756 -4.203927,-7.13282 l -0.412984,-0.856975 0.04496,-0.400678 0.04496,-0.400678 0.598761,-1.214285 c 1.039885,-2.108881 3.214413,-5.710601 4.20078,-6.957847 l 0.42664,-0.539479 0.502015,-0.141451 0.502016,-0.14145 5.552882,-0.04633 5.55289,-0.04633 v -7.881154 -7.881155 h -5.18388 -5.183877 l 0.325304,-0.719745 0.325302,-0.719744 0.187619,-0.733062 c 0.10319,-0.403184 0.238659,-1.018654 0.301043,-1.367711 l 0.113424,-0.634651 5.975805,0.03143 5.9758,0.03143 0.33653,0.117762 c 0.1851,0.06477 0.46099,0.196015 0.61309,0.291658 l 0.27654,0.173894 0.17648,0.359886 0.17649,0.359886 0.0998,0.949127 0.0998,0.949126 8e-5,8.335472 8e-5,8.33547 0.88942,0.05251 0.88942,0.05251 0.36298,0.105552 0.36298,0.105552 0.37376,0.288587 0.37376,0.288586 0.21999,0.409928 0.22,0.409928 0.0649,2.083462 0.0649,2.083463 -0.0512,5.96725 -0.0512,5.967249 -0.46896,0.38033 -0.46896,0.380331 -0.32226,0.09594 -0.32225,0.09594 -1.08861,0.06159 -1.08861,0.06159 -0.0666,0.303571 -0.0667,0.303572 -0.0388,9.211605 -0.0388,9.211605 -0.91758,0.852974 c -0.50466,0.469136 -1.17584,1.167176 -1.4915,1.551201 l -0.57392,0.698225 -0.39488,0.729542 -0.39487,0.729542 -0.21132,0.693877 -0.21132,0.693878 -0.0471,1.344387 -0.0471,1.344388 0.16014,0.769545 0.16014,0.769546 0.27681,0.684173 0.27681,0.684172 0.36043,0.54118 c 0.454,0.681663 0.97261,1.285333 1.95522,2.275874 l 0.77435,0.780612 0.20273,0.372416 0.20272,0.372415 -0.0383,0.581666 -0.0383,0.581667 -0.24987,0.487809 -0.24988,0.48781 -0.41951,0.141084 -0.41951,0.141085 -0.96154,0.09983 -0.96154,0.09983 -29.615384,0.01829 -29.615384,0.01829 -1.73077,-0.06591 z m 56.447901,-5.142852 c -0.5,-0.898683 -0.85693,-1.863142 -1.06474,-2.877111 l -0.15999,-0.780612 -0.0521,-2.103316 -0.0521,-2.103317 H 48.343354 20.567755 l -0.462976,0.300033 c -0.254636,0.165018 -0.698247,0.39882 -0.9858,0.519561 l -0.522823,0.219528 -0.322007,8.67e-4 -0.322006,8.67e-4 -0.335613,-0.143657 -0.335612,-0.143657 -0.229715,-0.313119 C 16.92486,76.008372 16.795068,75.748307 16.762776,75.602665 l -0.05871,-0.264805 0.142618,-0.307895 0.142617,-0.307896 0.635962,-0.608113 0.635962,-0.608114 0.455928,-0.176821 0.455928,-0.176821 0.775854,-0.09574 C 20.375654,73.0038 21.717,72.9234 22.929704,72.877782 l 2.204916,-0.08298 26.015078,-0.0018 26.015075,-0.0018 0.32478,-0.605592 0.32479,-0.605593 -0.0738,-0.0666 -0.0738,-0.0666 -16.217977,-0.02442 -16.217973,-0.02442 -12.596154,0.08067 -12.596154,0.08067 -0.576923,0.142248 c -0.753233,0.18572 -1.625719,0.555705 -2.334951,0.990155 l -0.570022,0.349175 -0.566744,0.559981 c -0.64624,0.638529 -1.106375,1.291596 -1.448761,2.056221 l -0.236898,0.529048 -0.149349,0.709419 -0.149348,0.709419 0.05526,0.737245 0.05526,0.737245 0.152269,0.520408 0.15227,0.520408 0.400575,0.737245 0.400576,0.737245 0.869929,0.781925 0.869929,0.781926 1.105769,0.519095 1.105769,0.519095 23.461539,0.04372 c 12.903846,0.02404 26.106113,0.05332 29.338372,0.06505 l 5.876837,0.02133 z M 16.096156,68.304986 c 1.077471,-0.482523 2.198241,-0.814269 3.149039,-0.932109 l 0.45673,-0.05661 v -4.98193 -4.981931 h -0.05776 c -0.113491,0 -2.025478,0.894758 -2.897703,1.356046 l -0.888158,0.469714 -0.484769,0.453192 -0.484769,0.453191 -0.235781,0.433673 -0.235782,0.433674 -0.09612,0.607143 -0.09612,0.607143 -0.0019,3.576056 -0.0019,3.576057 0.649039,-0.377475 c 0.356971,-0.20761 0.908653,-0.493738 1.225961,-0.635838 z M 15.230772,55.826239 c 0.823093,-0.548061 2.786769,-1.246348 3.877033,-1.378681 l 0.511649,-0.0621 0.04191,-0.09943 c 0.02305,-0.05469 0.03079,-5.551266 0.0172,-12.214621 l -0.02471,-12.115189 -1.231352,0.507404 c -0.677244,0.279073 -1.504893,0.668165 -1.839219,0.86465 l -0.607873,0.357242 -0.57014,0.538805 c -0.313577,0.296343 -0.708284,0.721476 -0.877127,0.944739 l -0.306987,0.405933 v 11.46533 11.465331 l 0.360577,-0.24367 c 0.198317,-0.134019 0.490385,-0.330103 0.649039,-0.435743 z M 84.605773,41.826302 v -5.03121 l -6.6071,0.02228 -6.6071,0.02228 -1.434769,2.471939 -1.434769,2.471939 0.689809,1.214285 c 0.379394,0.667857 1.036473,1.809503 1.460176,2.53699 l 0.770368,1.322704 h 6.581695 6.58169 z m -8.84382,2.902102 c -0.28959,-0.07285 -0.70645,-0.227579 -0.92637,-0.343836 l -0.39986,-0.211375 -0.44432,-0.445782 -0.44432,-0.445782 -0.15415,-0.478305 -0.154145,-0.478306 0.03808,-0.539411 0.0381,-0.53941 0.31292,-0.573355 0.31291,-0.573355 0.39699,-0.306518 0.39699,-0.306518 0.53647,-0.187779 0.53648,-0.187778 0.69234,-4.34e-4 0.69235,-4.33e-4 0.62573,0.277872 0.62573,0.277872 0.33514,0.353172 c 0.18432,0.194246 0.43274,0.534124 0.55203,0.755287 l 0.21691,0.402112 0.004,0.737245 0.004,0.737245 -0.21977,0.404387 c -0.12087,0.222413 -0.38775,0.576533 -0.59306,0.786933 l -0.3733,0.382545 -0.58107,0.279368 -0.58107,0.279368 -0.4594,0.03869 -0.45941,0.03869 -0.52651,-0.132461 z m -60.579258,-16.584415 0.528846,-0.316868 0.880855,-0.274072 c 0.48447,-0.15074 1.353966,-0.362482 1.932213,-0.470539 l 1.051358,-0.196467 0.06298,-1.824168 c 0.03464,-1.003294 0.06109,-3.037583 0.05879,-4.520644 l -0.0042,-2.696474 -0.0812,-0.379183 -0.0812,-0.379183 -0.119801,-0.06679 -0.119802,-0.06679 -0.295994,0.07657 c -0.162797,0.04212 -0.637656,0.262319 -1.055243,0.489339 l -0.759249,0.412765 -0.830918,0.787886 -0.830918,0.787887 -0.322559,0.488953 c -0.177407,0.268924 -0.431466,0.732168 -0.564574,1.029429 l -0.242016,0.540477 -0.08222,1.738806 c -0.04522,0.956343 -0.09405,2.583916 -0.108502,3.616827 l -0.02628,1.878019 0.240385,-0.169459 c 0.132211,-0.0932 0.478365,-0.31205 0.769231,-0.486328 z M 32.094721,60.620056 C 31.598162,60.45334 31.169074,60.157351 30.852528,59.763178 l -0.274605,-0.341947 -0.10235,-0.448951 -0.10235,-0.448952 -0.140614,-2.298469 c -0.07734,-1.264158 -0.275888,-4.822009 -0.441224,-7.906336 l -0.30061,-5.607866 5.193138,-10.004379 C 42.939447,16.802314 45.458903,11.986746 47.710468,7.8079495 l 1.108441,-2.057215 0.495309,-0.428377 0.495308,-0.428376 0.643316,-0.303635 c 0.353823,-0.166999 0.967833,-0.395039 1.364468,-0.506755 l 0.721154,-0.203121 h 1.634615 1.634616 l 0.817307,0.156973 c 0.44952,0.08634 1.336539,0.311806 1.971154,0.501046 l 1.153846,0.344073 1.070222,0.470879 1.070223,0.470878 1.041416,0.628164 1.041415,0.628163 0.979149,0.871851 0.979148,0.871851 0.485493,0.675788 0.485491,0.6757895 0.304663,0.711967 0.304662,0.711966 -0.04342,0.997449 -0.04342,0.997449 -0.359229,0.853525 C 66.43814,15.939636 65.21666,18.360436 60.7349,26.995267 55.072406,37.904971 51.083518,45.531389 49.371231,48.721645 l -0.990986,1.846363 -1.142045,0.818716 c -2.680963,1.921946 -10.23269,7.06092 -12.718318,8.654855 l -0.999351,0.640845 -0.53911,0.02717 -0.539111,0.02716 z M 37.0321,52.907257 c 0.920626,-0.568993 4.746135,-3.165147 6.800106,-4.614844 l 0.812974,-0.573799 -0.620666,-0.529262 c -0.972292,-0.829105 -2.686621,-2.135005 -3.231143,-2.461339 l -0.495093,-0.296711 -0.536822,-0.126128 c -0.295252,-0.06937 -0.96714,-0.173172 -1.493084,-0.230671 -0.525946,-0.0575 -1.007792,-0.133271 -1.070772,-0.168382 l -0.114506,-0.06384 0.576863,-1.159478 C 39.014272,39.960677 51.335509,16.230616 53.40494,12.358788 l 0.846039,-1.582908 h 0.187464 c 0.246206,0 1.824949,0.605556 5.071175,1.945144 l 2.64423,1.091169 0.121739,-0.148887 c 0.06696,-0.08189 0.193309,-0.353692 0.280784,-0.604009 L 62.715415,12.604174 62.598036,12.250776 62.480657,11.897379 61.842414,11.287083 61.20417,10.676787 60.280623,10.122185 59.357074,9.5675825 58.44777,9.1796455 57.538464,8.7917085 56.689216,8.5702545 c -1.066975,-0.27823 -1.85665,-0.394924 -2.678146,-0.395761 l -0.642779,-6.55e-4 -0.254352,0.08723 -0.254352,0.08723 -1.472068,2.7099625 c -2.279125,4.19569 -4.66609,8.750782 -12.939502,24.692717 l -4.071333,7.845 0.168989,3.257041 c 0.197432,3.805273 0.322476,5.448256 0.455717,5.987783 l 0.09604,0.388906 0.153688,0.153186 0.153687,0.153187 h 0.304927 0.304928 z"
       id="path1456-3"
       transform="matrix(1.0412134,0,0,1.0055542,-0.32590905,-0.01363984)" /><path
       style="fill:#eeeeee;fill-opacity:1;stroke-width:0.0913229"
       d="m 21.517278,88.135377 -1.730769,-0.06591 -0.803353,-0.186553 c -1.627761,-0.377995 -3.099789,-0.999572 -4.337369,-1.831495 l -0.724663,-0.487132 -0.749817,-0.711271 -0.749818,-0.711272 -0.530186,-0.7337 C 11.278076,82.559429 10.92962,81.897482 10.363487,80.50572 l -0.4057372,-0.997449 -0.05398,-24.372449 -0.05398,-24.372449 0.08244,-4.336734 0.08244,-4.336735 0.10786,-1.040816 c 0.05932,-0.572449 0.170315,-1.287453 0.246648,-1.588898 l 0.138788,-0.548081 0.322494,-0.629621 c 0.177372,-0.346292 0.505004,-0.911508 0.728071,-1.256037 l 0.405576,-0.626415 0.700912,-0.759644 0.700913,-0.759643 0.75836,-0.551195 c 1.328274,-0.96542 2.816563,-1.717473 4.10288,-2.073243 l 0.652211,-0.180389 1.222789,-0.08727 1.222789,-0.08727 7.259625,-0.08535 c 3.992788,-0.04694 8.455512,-0.109431 9.917163,-0.138867 l 2.657548,-0.05352 0.06275,0.09158 0.06275,0.09158 -0.567097,1.108385 c -0.311904,0.609612 -0.796084,1.54748 -1.075955,2.084151 l -0.508861,0.975771 H 31.310658 23.488432 V 41.258275 66.541439 H 52.334586 81.18074 v -7.892858 -7.892857 l -3.677885,-0.0031 c -2.022836,-0.0017 -4.589669,-0.03729 -5.704072,-0.07913 l -2.026187,-0.07604 -0.340787,-0.128441 -0.340786,-0.128441 -0.526967,-0.724824 c -1.038779,-1.428804 -3.322,-5.302756 -4.203927,-7.13282 l -0.412984,-0.856975 0.04496,-0.400678 0.04496,-0.400678 0.598761,-1.214285 c 1.039885,-2.108881 3.214413,-5.710601 4.20078,-6.957847 l 0.42664,-0.539479 0.502015,-0.141451 0.502016,-0.14145 5.552885,-0.04633 5.552885,-0.04633 V 23.856267 15.975112 H 76.18917 71.005292 l 0.325304,-0.719745 0.325302,-0.719744 0.187619,-0.733062 c 0.10319,-0.403184 0.238659,-1.018654 0.301043,-1.367711 l 0.113424,-0.634651 5.975801,0.03143 5.9758,0.03143 0.336538,0.117762 c 0.185097,0.06477 0.460984,0.196015 0.613083,0.291658 l 0.276543,0.173894 0.176484,0.359886 0.176483,0.359886 0.09978,0.949127 0.09978,0.949126 7.9e-5,8.335472 8.1e-5,8.33547 0.889423,0.05251 0.889423,0.05251 0.362978,0.105552 0.362978,0.105552 0.373762,0.288587 0.373761,0.288586 0.219992,0.409928 0.219994,0.409928 0.0649,2.083462 0.0649,2.083463 -0.0512,5.96725 -0.0512,5.967249 -0.468958,0.38033 -0.468958,0.380331 -0.322259,0.09594 -0.322258,0.09594 -1.08861,0.06159 -1.088609,0.06159 -0.06664,0.303571 -0.06665,0.303572 -0.03884,9.211605 -0.03884,9.211605 -0.917574,0.852974 c -0.504666,0.469136 -1.17584,1.167176 -1.491498,1.551201 l -0.573925,0.698225 -0.394875,0.729542 -0.394876,0.729542 -0.21132,0.693877 -0.211321,0.693878 -0.04707,1.344387 -0.04707,1.344388 0.16014,0.769545 0.160141,0.769546 0.276808,0.684173 0.276809,0.684172 0.360433,0.54118 c 0.454,0.681663 0.972616,1.285333 1.955218,2.275874 l 0.774356,0.780612 0.202726,0.372416 0.202726,0.372415 -0.03834,0.581666 -0.03834,0.581667 -0.249875,0.487809 -0.249875,0.48781 -0.419514,0.141084 -0.419512,0.141085 -0.961539,0.09983 -0.961538,0.09983 -29.615385,0.01829 -29.615384,0.01829 -1.73077,-0.06591 z m 56.447905,-5.142852 c -0.500009,-0.898683 -0.856931,-1.863142 -1.064746,-2.877111 l -0.159988,-0.780612 -0.05211,-2.103316 -0.05211,-2.103317 H 48.86063 21.085031 l -0.462976,0.300033 c -0.254636,0.165018 -0.698247,0.39882 -0.9858,0.519561 l -0.522823,0.219528 -0.322007,8.67e-4 -0.322006,8.67e-4 -0.335613,-0.143657 -0.335612,-0.143657 -0.229715,-0.313119 c -0.126343,-0.172216 -0.256135,-0.432281 -0.288427,-0.577923 l -0.05871,-0.264805 0.142618,-0.307895 0.142617,-0.307896 0.635962,-0.608113 0.635962,-0.608114 0.455928,-0.176821 0.455928,-0.176821 0.775854,-0.09574 c 0.426719,-0.05266 1.768065,-0.13306 2.980769,-0.178678 l 2.204916,-0.08298 26.015078,-0.0018 26.015077,-0.0018 0.324782,-0.605592 0.324783,-0.605593 -0.07381,-0.0666 -0.07381,-0.0666 -16.217974,-0.02442 -16.217973,-0.02442 -12.596154,0.08067 -12.596154,0.08067 -0.576923,0.142248 c -0.753233,0.18572 -1.625719,0.555705 -2.334951,0.990155 l -0.570022,0.349175 -0.566744,0.559981 c -0.64624,0.638529 -1.106375,1.291596 -1.448761,2.056221 l -0.236898,0.529048 -0.149349,0.709419 -0.149348,0.709419 0.05526,0.737245 0.05526,0.737245 0.152269,0.520408 0.15227,0.520408 0.400575,0.737245 0.400576,0.737245 0.869929,0.781925 0.869929,0.781926 1.105769,0.519095 1.105769,0.519095 23.461539,0.04372 c 12.903846,0.02404 26.106113,0.05332 29.338372,0.06505 l 5.876833,0.02133 z M 16.613432,67.69299 c 1.077471,-0.482523 2.198241,-0.814269 3.149039,-0.932109 l 0.45673,-0.05661 v -4.98193 -4.981931 h -0.05776 c -0.113491,0 -2.025478,0.894758 -2.897703,1.356046 l -0.888158,0.469714 -0.484769,0.453192 -0.484769,0.453191 -0.235781,0.433673 -0.235782,0.433674 -0.09612,0.607143 -0.09612,0.607143 -0.0019,3.576056 -0.0019,3.576057 0.649039,-0.377475 c 0.356971,-0.20761 0.908653,-0.493738 1.225961,-0.635838 z M 15.748048,55.214243 c 0.823093,-0.548061 2.786769,-1.246348 3.877033,-1.378681 l 0.511649,-0.0621 0.04191,-0.09943 c 0.02305,-0.05469 0.03079,-5.551266 0.0172,-12.214621 l -0.02471,-12.115189 -1.231352,0.507404 c -0.677244,0.279073 -1.504893,0.668165 -1.839219,0.86465 l -0.607873,0.357242 -0.57014,0.538805 c -0.313577,0.296343 -0.708284,0.721476 -0.877127,0.944739 l -0.306987,0.405933 v 11.46533 11.465331 l 0.360577,-0.24367 c 0.198317,-0.134019 0.490385,-0.330103 0.649039,-0.435743 z m 69.375,-13.999937 v -5.03121 l -6.607099,0.02228 -6.6071,0.02228 -1.434769,2.471939 -1.434769,2.471939 0.689809,1.214285 c 0.379394,0.667857 1.036473,1.809503 1.460176,2.53699 l 0.770368,1.322704 h 6.581691 6.581693 z m -8.843824,2.902102 c -0.289582,-0.07285 -0.706449,-0.227579 -0.926368,-0.343836 l -0.399854,-0.211375 -0.444321,-0.445782 -0.444322,-0.445782 -0.154148,-0.478305 -0.154147,-0.478306 0.03808,-0.539411 0.03808,-0.53941 0.312914,-0.573355 0.312915,-0.573355 0.396985,-0.306518 0.396987,-0.306518 0.536475,-0.187779 0.536476,-0.187778 0.692346,-4.34e-4 0.692345,-4.33e-4 0.625734,0.277872 0.625733,0.277872 0.335133,0.353172 c 0.184322,0.194246 0.432738,0.534124 0.552036,0.755287 l 0.216903,0.402112 0.0038,0.737245 0.0038,0.737245 -0.219765,0.404387 c -0.12087,0.222413 -0.387748,0.576533 -0.593062,0.786933 l -0.373297,0.382545 -0.58107,0.279368 -0.58107,0.279368 -0.459405,0.03869 -0.459403,0.03869 -0.526516,-0.132461 z m -60.579253,-16.584415 0.528846,-0.316868 0.880855,-0.274072 c 0.48447,-0.15074 1.353966,-0.362482 1.932213,-0.470539 l 1.051358,-0.196467 0.06298,-1.824168 c 0.03464,-1.003294 0.06109,-3.037583 0.05879,-4.520644 l -0.0042,-2.696474 -0.0812,-0.379183 -0.0812,-0.379183 -0.119801,-0.06679 -0.119802,-0.06679 -0.295994,0.07657 c -0.162797,0.04212 -0.637656,0.262319 -1.055243,0.489339 l -0.759249,0.412765 -0.830918,0.787886 -0.830918,0.787887 -0.322559,0.488953 c -0.177407,0.268924 -0.431466,0.732168 -0.564574,1.029429 l -0.242016,0.540477 -0.08222,1.738806 c -0.04522,0.956343 -0.09405,2.583916 -0.108502,3.616827 l -0.02628,1.878019 0.240385,-0.169459 c 0.132211,-0.0932 0.478365,-0.31205 0.769231,-0.486328 z M 32.611997,60.00806 C 32.115438,59.841344 31.68635,59.545355 31.369804,59.151182 l -0.274605,-0.341947 -0.10235,-0.448951 -0.10235,-0.448952 -0.140614,-2.298469 c -0.07734,-1.264158 -0.275888,-4.822009 -0.441224,-7.906336 l -0.30061,-5.607866 5.193138,-10.004379 C 43.456723,16.190318 45.976179,11.37475 48.227744,7.1959543 l 1.108441,-2.0572151 0.495309,-0.428377 0.495308,-0.428376 0.643316,-0.303635 c 0.353823,-0.166999 0.967833,-0.395039 1.364468,-0.506755 l 0.721154,-0.203121 h 1.634615 1.634616 l 0.817307,0.156973 c 0.44952,0.08634 1.336539,0.311806 1.971154,0.501046 l 1.153846,0.344073 1.070222,0.470879 1.070223,0.470878 1.041416,0.628164 1.041415,0.6281634 0.979149,0.8718508 0.979148,0.8718507 0.485493,0.6757881 0.485491,0.675789 0.304663,0.7119668 0.304662,0.711966 -0.04342,0.997449 -0.04342,0.997449 -0.359229,0.853525 C 66.955416,15.32764 65.733936,17.74844 61.252176,26.383271 55.589682,37.292975 51.600794,44.919393 49.888507,48.109649 l -0.990986,1.846363 -1.142045,0.818716 c -2.680963,1.921946 -10.23269,7.06092 -12.718318,8.654855 l -0.999351,0.640845 -0.53911,0.02717 -0.539111,0.02716 z m 4.937379,-7.712799 c 0.920626,-0.568993 4.746135,-3.165147 6.800106,-4.614844 l 0.812974,-0.573799 -0.620666,-0.529262 c -0.972292,-0.829105 -2.686621,-2.135005 -3.231143,-2.461339 l -0.495093,-0.296711 -0.536822,-0.126128 c -0.295252,-0.06937 -0.96714,-0.173172 -1.493084,-0.230671 -0.525946,-0.0575 -1.007792,-0.133271 -1.070772,-0.168382 l -0.114506,-0.06384 0.576863,-1.159478 C 39.531548,39.348681 51.852785,15.61862 53.922216,11.746792 l 0.846039,-1.582908 h 0.187464 c 0.246206,0 1.824949,0.605556 5.071175,1.945144 l 2.64423,1.091169 0.121739,-0.148887 c 0.06696,-0.08189 0.193309,-0.353692 0.280784,-0.604009 L 63.232691,11.992178 63.115312,11.63878 62.997933,11.285383 62.35969,10.675087 61.721446,10.064791 60.797899,9.5101892 59.87435,8.9555872 58.965046,8.5676502 58.05574,8.1797134 57.206492,7.958259 C 56.139517,7.6800291 55.349842,7.5633355 54.528346,7.5624981 l -0.642779,-6.552e-4 -0.254352,0.087231 -0.254352,0.087231 -1.472068,2.7099621 c -2.279125,4.19569 -4.66609,8.750782 -12.939502,24.692717 l -4.071333,7.845 0.168989,3.257041 c 0.197432,3.805273 0.322476,5.448256 0.455717,5.987783 l 0.09604,0.388906 0.153688,0.153186 0.153687,0.153187 h 0.304927 0.304928 z"
       id="path1456" /></g></svg>
