<?xml version="1.0" encoding="UTF-8" standalone="no"?>
<!-- Created with Inkscape (http://www.inkscape.org/) -->

<svg
   width="50px"
   height="50px"
   viewBox="0 0 50 50"
   version="1.1"
   id="SVGRoot"
   sodipodi:docname="diary_icon_blue.svg"
   xml:space="preserve"
   inkscape:version="1.2.2 (732a01da63, 2022-12-09)"
   xmlns:inkscape="http://www.inkscape.org/namespaces/inkscape"
   xmlns:sodipodi="http://sodipodi.sourceforge.net/DTD/sodipodi-0.dtd"
   xmlns="http://www.w3.org/2000/svg"
   xmlns:svg="http://www.w3.org/2000/svg"><sodipodi:namedview
     id="namedview187"
     pagecolor="#ffffff"
     bordercolor="#000000"
     borderopacity="0.25"
     inkscape:showpageshadow="2"
     inkscape:pageopacity="0.0"
     inkscape:pagecheckerboard="0"
     inkscape:deskcolor="#d1d1d1"
     inkscape:document-units="px"
     showgrid="false"
     inkscape:zoom="11.313709"
     inkscape:cx="20.196737"
     inkscape:cy="33.543378"
     inkscape:window-width="1920"
     inkscape:window-height="1001"
     inkscape:window-x="-9"
     inkscape:window-y="-9"
     inkscape:window-maximized="1"
     inkscape:current-layer="layer1" /><defs
     id="defs182"><filter
       style="color-interpolation-filters:sRGB;"
       inkscape:label="Clean Edges"
       id="filter564"
       x="-0.24009813"
       y="-0.25261276"
       width="1.4801963"
       height="1.5052255"><feGaussianBlur
         stdDeviation="2"
         result="blur"
         id="feGaussianBlur558" /><feComposite
         in="SourceGraphic"
         in2="blur"
         operator="in"
         result="composite1"
         id="feComposite560" /><feComposite
         in="composite1"
         in2="composite1"
         k2="1"
         operator="in"
         result="fbSourceGraphic"
         id="feComposite562" /><feColorMatrix
         result="fbSourceGraphicAlpha"
         in="fbSourceGraphic"
         values="0 0 0 -1 0 0 0 0 -1 0 0 0 0 -1 0 0 0 0 1 0"
         id="feColorMatrix566" /><feGaussianBlur
         id="feGaussianBlur568"
         stdDeviation="2"
         result="blur"
         in="fbSourceGraphic" /><feComposite
         in2="blur"
         id="feComposite570"
         in="fbSourceGraphic"
         operator="in"
         result="composite1" /><feComposite
         in2="composite1"
         id="feComposite572"
         in="composite1"
         k2="1"
         operator="in"
         result="composite2" /></filter></defs><g
     inkscape:label="Ebene 1"
     inkscape:groupmode="layer"
     id="layer1"
     style="display:inline"><path
       id="path4051"
       style="fill:#647cb2;fill-opacity:1;stroke:#292929;stroke-width:0.0625984;stroke-linecap:round;stroke-linejoin:bevel;stroke-dasharray:none;stroke-opacity:0.631579"
       d="M 15.464844,7.3828125 C 12.555585,7.4033335 9.6327337,7.3521473 6.7304688,7.4472656 5.714937,7.936913 5.2785642,8.1338105 4.8828125,9.5605469 c 0.012254,11.1582061 -0.031645,22.3165501 0.03125,33.4746091 0.030748,0.3581 -0.033956,0.774731 0.054687,1.09961 0.498763,0.615523 0.5466554,1.072743 1.9082031,1.414062 0.3671098,0.02562 0.8208075,0.06386 1.2382813,0.04297 4.1727901,0.02383 8.3565871,0.05759 12.5234371,-0.02148 0.153052,-0.02598 0.383767,-0.05271 0.382813,-0.257812 0.129396,-0.504091 0.04698,-1.083854 0.08398,-1.617188 0.0013,-1.13906 0.02731,-2.279962 -0.0293,-3.417968 0.01264,-0.459434 -0.281535,-0.394397 -0.511719,-0.392577 -3.782171,0.01155 -7.563524,-0.0015 -11.3457035,-0.0039 -0.2335998,-0.236516 -0.033113,-0.711285 -0.099609,-1.037109 0.014144,-8.613031 -0.032865,-17.227033 0.033203,-25.839844 0.015367,-0.370724 0.050734,-0.626532 0.080078,-0.880859 0.027443,-0.315242 0.1328696,-0.523599 0.6161723,-0.520641 0.7796792,0.02108 1.3239662,0.05806 2.0850002,0.02259 3.360299,0.0055 6.720556,-0.04153 10.080078,0.0293 0.582636,0.01066 0.697058,0.05319 0.805913,0.459041 0.07018,0.331655 0.02267,0.464169 0.06127,0.996037 0.0096,4.066549 -0.03841,8.135274 0.01758,12.201172 -0.06676,0.387929 0.619417,0.267035 0.845703,0.310547 5.026421,-0.04979 10.079435,-0.01346 13.919806,-0.134903 1.274492,-1.238192 1.553845,-1.50185 4.57778,-4.363702 0.188313,-0.294497 0.206516,-0.354354 0.339576,-0.635436 0.0044,-0.311888 0.01257,-0.5412 -0.01489,-0.830768 C 38.541831,15.705331 34.364267,11.58652 30.376953,7.4707031 28.000698,7.3303345 25.617843,7.40915 23.238281,7.3828125 c -2.591184,-5.178e-4 -5.182253,-7.499e-4 -7.773437,0 z m 12.986328,4.3886705 c 3.868319,4.032962 6.000385,6.19855 8.582031,8.763672 0.0293,0.814453 0.08195,0.688566 0.0293,0.814453 -2.818648,-0.0077 -5.609132,-0.01138 -8.457031,-0.01563 -1.304232,0.1504 -0.824569,-1.314243 -0.986328,-1.740234 2.8e-5,-2.635414 8.9e-5,-5.270836 0,-7.90625 0.355771,-0.345632 0.44189,-0.181377 0.832028,0.08399 z m 11.652344,13.775379 c -0.870394,0.699261 -1.607668,1.281148 -2.21875,1.839844 -0.388519,0.335461 -0.592372,0.423063 -0.486328,0.771484 1.385748,1.524706 3.19668,3.339298 4.349609,4.353516 0.313219,0.270887 0.585583,0.05496 0.775391,-0.177735 0.838179,-0.741376 1.676157,-1.663323 2.560546,-2.568359 0.06763,-0.195701 0.08458,-0.42722 -0.123042,-0.624999 -1.361047,-1.259156 -3.042955,-2.825499 -4.13086,-3.812501 -0.248754,-0.122766 -0.473916,0.03266 -0.726566,0.21875 z m -3.890625,3.439463 c -4.094445,3.901616 -8.368475,7.985288 -12.416016,11.857422 -0.361634,0.345977 -0.373912,0.560573 -0.40625,0.708984 -0.02143,1.474377 -0.05722,2.557303 0.05078,3.804688 0.02397,0.168268 0.05588,0.183276 0.222656,0.205078 1.580234,0.0953 3.192993,0.04199 4.785157,0.03711 0.338028,-0.0369 0.799694,0.05437 1.066406,-0.113281 3.91456,-4.253994 7.911052,-8.298766 11.544922,-11.720703 0.317016,-0.341879 0.305279,-0.455985 0.01172,-0.683594 -1.236526,-1.131847 -2.810191,-2.692623 -3.896485,-3.708984 -0.772346,-0.779034 -0.804514,-0.516211 -0.962887,-0.38672 z"
       class="UnoptimicedTransforms"
       sodipodi:nodetypes="cccccccccccccccccccccccccccccccccccccccccccccccccccccccccc" /></g></svg>
