<?xml version="1.0" encoding="UTF-8" standalone="no"?>
<!-- Created with Inkscape (http://www.inkscape.org/) -->

<svg
   width="100px"
   height="100px"
   viewBox="0 0 100 100"
   version="1.1"
   id="SVGRoot"
   sodipodi:docname="habits_icon.svg"
   xml:space="preserve"
   inkscape:version="1.2.2 (732a01da63, 2022-12-09)"
   xmlns:inkscape="http://www.inkscape.org/namespaces/inkscape"
   xmlns:sodipodi="http://sodipodi.sourceforge.net/DTD/sodipodi-0.dtd"
   xmlns:xlink="http://www.w3.org/1999/xlink"
   xmlns="http://www.w3.org/2000/svg"
   xmlns:svg="http://www.w3.org/2000/svg"><sodipodi:namedview
     id="namedview64"
     pagecolor="#ffffff"
     bordercolor="#000000"
     borderopacity="0.25"
     inkscape:showpageshadow="2"
     inkscape:pageopacity="0.0"
     inkscape:pagecheckerboard="0"
     inkscape:deskcolor="#d1d1d1"
     inkscape:document-units="px"
     showgrid="true"
     inkscape:zoom="12.12"
     inkscape:cx="49.587459"
     inkscape:cy="42.20297"
     inkscape:window-width="1920"
     inkscape:window-height="1001"
     inkscape:window-x="-9"
     inkscape:window-y="-9"
     inkscape:window-maximized="1"
     inkscape:current-layer="g32126"><inkscape:grid
       type="xygrid"
       id="grid74" /></sodipodi:namedview><defs
     id="defs59"><clipPath
       clipPathUnits="userSpaceOnUse"
       id="clipPath32092"><g
         id="g32098"><g
           id="g32096"><use
             x="0"
             y="0"
             xlink:href="#g29950"
             id="use32094" /></g></g></clipPath><clipPath
       clipPathUnits="userSpaceOnUse"
       id="clipPath32100"><g
         id="g32106"><g
           id="g32104"><use
             x="0"
             y="0"
             xlink:href="#g29950"
             id="use32102" /></g></g></clipPath><inkscape:path-effect
       effect="fill_between_many"
       method="originald"
       linkedpaths="#path29798,0,1|#path32070,0,1|#path32078,0,1|#path32080,0,1|#path32122,0,1|#path32124,0,1"
       id="path-effect33592" /><clipPath
       clipPathUnits="userSpaceOnUse"
       id="clipPath33911"><path
         id="path33913"
         style="fill:#ff0000;fill-opacity:1;fill-rule:nonzero;stroke:none"
         d="M 9.5,9.3496094 V 85.5 h 81 V 9.3496094 Z M 50.792969,45.009766 c 0.156009,-0.0087 0.32073,0.136429 0.33789,0.445312 0.0026,0.04593 -0.0032,0.09358 0.0059,0.138672 0.03237,0.16035 0.203669,0.633234 0.230469,0.708984 0.224447,0.634296 0.46794,1.261777 0.707031,1.890625 0.480077,1.287815 0.943906,2.581494 1.429687,3.867188 0.218685,0.578781 -0.367259,0.799486 -0.585937,0.220703 -0.485615,-1.285296 -0.947916,-2.579738 -1.427735,-3.867188 -0.161036,-0.423564 -0.360154,-0.939864 -0.517578,-1.365234 -0.171749,-0.464072 -0.365884,-0.933541 -0.458984,-1.421875 -0.0087,-0.04518 -0.0052,-0.09079 -0.0078,-0.136719 -0.01716,-0.308882 0.1311,-0.471801 0.28711,-0.480468 z" /></clipPath><inkscape:path-effect
       effect="fill_between_many"
       method="originald"
       linkedpaths="#g34031,0,1|"
       id="path-effect34033"
       join="true"
       close="true"
       autoreverse="true" /></defs><g
     inkscape:label="Ebene 1"
     inkscape:groupmode="layer"
     id="layer1"
     style="display:inline"><path
       inkscape:original-d="M 0,0"
       inkscape:path-effect="#path-effect33592"
       d="M 48,48 H 73 V 70 H 48 Z"
       id="path33594"
       class="UnoptimicedTransforms"
       style="display:none" /><path
       style="display:inline;fill:#ececec"
       d="M 48,48 H 73 V 70 H 48"
       id="path29798"
       sodipodi:nodetypes="cccc"
       class="UnoptimicedTransforms" /><g
       inkscape:label="Clip"
       id="g29950"
       clip-path="url(#clipPath29964)"
       style="display:none"
       inkscape:groupmode="layer"><path
         style="fill:none;stroke:#a9d1e5;stroke-opacity:1"
         d="M 20,20 V 10 H 35 V 20 H 65 V 10 h 14 c 0,0 1,-0.3333333 1,0 0,3 0,10 0,10 h 5 c 2.357023,0 5,2.642977 5,5 v 55 c 0,2.357023 -2.642977,5 -5,5 H 15 c -2.357023,0 -5,-2.642977 -5,-5 V 25 c 0,-2.357023 2.642977,-5 5,-5 z"
         id="path29856"
         sodipodi:nodetypes="cccccccscssssssssc" /><path
         id="path29856-0"
         style="fill:none;stroke:#a9d1e5;stroke-width:0.954445;stroke-opacity:1"
         d="m 26.080882,28.488093 h 0.477942 -8.139936 C 17.736268,28.488093 17,29.344633 17,29.998016 v 47.584911 c 0,0.682886 0.860176,1.414623 1.514477,1.414623 H 80.581112 C 81.263732,78.99755 82,78.14101 82,77.487627 V 29.902716 c 0,-0.682886 -0.860176,-1.414623 -1.514477,-1.414623 h -4.698759 v 0 h -6.691175 v 0 H 29.426471 28.948529 27.036766 Z"
         sodipodi:nodetypes="ccsssssssscccccccc" /></g><path
       style="display:none;fill:none;stroke:#a9d1e5;stroke-width:0.0861885;stroke-opacity:1"
       d="m 17.874866,28.315632 c -0.621264,0.424034 -1.194255,1.069104 -1.104291,1.874938 -0.12271,7.723443 -0.05092,15.448983 -0.07418,23.173273 -1.25e-4,8.103968 -1.8e-5,16.207937 -5.4e-5,24.311905 0.200867,0.894254 1.107456,1.604968 2.041676,1.522375 7.157744,0.123801 14.317836,0.05037 21.47652,0.07553 13.523634,0.0011 27.047269,6.49e-4 40.570904,9.63e-4 0.646624,-0.114114 1.073989,-0.731017 1.404954,-1.2492 0.136278,-1.238613 0.01814,-2.524703 0.05773,-3.781214 0,-14.843005 0,-29.686008 0,-44.529013 -0.178793,-0.883783 -1.084491,-1.546688 -1.990452,-1.437135 -8.67386,-0.119357 -17.349457,-0.05266 -26.024025,-0.0751 -11.98279,-9.39e-4 -23.96558,-2.07e-4 -35.94837,-4.39e-4 -0.136801,0.03771 -0.273603,0.07541 -0.410405,0.113122 z m 42.586402,20.448234 c 3.913499,0 7.826998,0 11.740497,0 0,6.821464 0,13.64293 0,20.464394 -7.826998,0 -15.653995,0 -23.480993,0 0,-6.821464 0,-13.64293 0,-20.464394 3.913499,0 7.826998,0 11.740496,0 z"
       id="path32070"
       class="UnoptimicedTransforms" /><path
       style="display:none;fill:none;stroke:#a9d1e5;stroke-opacity:1"
       d="M 20,20 V 10 H 35 V 20 H 65 V 10 h 14 c 0,0 1,-0.3333333 1,0 0,3 0,10 0,10 h 5 c 2.357023,0 5,2.642977 5,5 v 55 c 0,2.357023 -2.642977,5 -5,5 H 15 c -2.357023,0 -5,-2.642977 -5,-5 V 25 c 0,-2.357023 2.642977,-5 5,-5 z"
       id="path32078"
       sodipodi:nodetypes="cccccccscssssssssc"
       clip-path="url(#clipPath32100)"
       class="UnoptimicedTransforms" /><path
       id="path32080"
       style="display:none;fill:none;stroke:#a9d1e5;stroke-width:0.954445;stroke-opacity:1"
       d="m 26.080882,28.488093 h 0.477942 -8.139936 C 17.736268,28.488093 17,29.344633 17,29.998016 v 47.584911 c 0,0.682886 0.860176,1.414623 1.514477,1.414623 H 80.581112 C 81.263732,78.99755 82,78.14101 82,77.487627 V 29.902716 c 0,-0.682886 -0.860176,-1.414623 -1.514477,-1.414623 h -4.698759 v 0 h -6.691175 v 0 H 29.426471 28.948529 27.036766 Z"
       sodipodi:nodetypes="ccsssssssscccccccc"
       clip-path="url(#clipPath32092)"
       class="UnoptimicedTransforms" /></g><g
     inkscape:label="Clip Kopie"
     id="g32126"
     clip-path="url(#clipPath29964)"
     style="display:inline"
     inkscape:groupmode="layer"><path
       inkscape:original-d="M 0,0"
       inkscape:path-effect="#path-effect34033"
       d="M 0,0"
       id="path34035"
       class="UnoptimicedTransforms" /><g
       id="g34031"
       class="UnoptimicedTransforms"
       style="fill:#abd0e3;fill-opacity:1;stroke:#a9d1e5;stroke-opacity:1"><path
         id="path34040"
         clip-path="url(#clipPath33911)"
         style="color:#000000;fill:#ededee;-inkscape-stroke:none;fill-opacity:1;stroke:#ededee;stroke-opacity:1"
         class="UnoptimicedTransforms"
         d="m 79.654297,9.3515625 c -0.08295,0.00492 -0.160499,0.016659 -0.236328,0.029297 C 79.168106,9.422503 79.01632,9.4763903 78.943359,9.5 H 64.5 v 10 h -29 v -10 h -16 v 10 H 15 c -1.365395,0 -2.710224,0.733661 -3.738281,1.761719 C 10.233661,22.289776 9.5,23.634605 9.5,25 v 55 c 0,1.365395 0.733661,2.710224 1.761719,3.738281 C 12.289776,84.766339 13.634605,85.5 15,85.5 h 70 c 1.365395,0 2.710224,-0.733661 3.738281,-1.761719 C 89.766339,82.710224 90.5,81.365395 90.5,80 V 25 c 0,-1.365395 -0.733661,-2.710224 -1.761719,-3.738281 C 87.710224,20.233661 86.365395,19.5 85,19.5 H 80.5 V 10 C 80.5,9.8333339 80.405438,9.6262759 80.277344,9.5195312 80.14925,9.4127866 80.025975,9.3819333 79.925781,9.3652344 79.825588,9.3485354 79.737244,9.3466411 79.654297,9.3515625 Z M 79.5,10.388672 V 20.5 H 85 c 0.991622,0 2.148569,0.586069 3.03125,1.46875 C 88.913931,22.851431 89.5,24.008378 89.5,25 v 55 c 0,0.991622 -0.586069,2.148569 -1.46875,3.03125 C 87.148569,83.913931 85.991622,84.5 85,84.5 H 15 c -0.991622,0 -2.148569,-0.586069 -3.03125,-1.46875 C 11.086069,82.148569 10.5,80.991622 10.5,80 V 25 c 0,-0.991622 0.586069,-2.148569 1.46875,-3.03125 C 12.851431,21.086069 14.008378,20.5 15,20.5 h 5.5 V 20 10.5 h 14 v 10 h 31 v -10 h 13.582031 l 0.07617,-0.02539 c 0,0 0.181278,-0.05027 0.341797,-0.08594 z M 18.417969,28.011719 c -0.540913,0 -0.983791,0.298836 -1.316407,0.664062 -0.332613,0.365228 -0.578124,0.816321 -0.578124,1.322266 v 47.583984 c 0,0.541816 0.301432,0.98706 0.667968,1.31836 0.366538,0.331298 0.817215,0.574218 1.322266,0.574218 h 62.068359 c 0.540913,0 0.983792,-0.300789 1.316407,-0.666015 0.332614,-0.365228 0.578124,-0.814368 0.578124,-1.320313 V 29.902344 c 0,-0.541816 -0.301432,-0.985107 -0.667968,-1.316406 -0.366538,-0.3313 -0.817215,-0.574219 -1.322266,-0.574219 h -4.699219 -6.691406 -39.669922 -0.476562 -1.91211 -0.478515 -0.478516 z m 0,0.953125 h 7.662109 0.478516 0.478515 1.91211 0.476562 39.669922 6.691406 4.699219 c 0.14925,0 0.454516,0.122835 0.681641,0.328125 0.227124,0.205289 0.355469,0.468305 0.355469,0.609375 v 47.585937 c 0,0.147438 -0.123906,0.451347 -0.330079,0.677735 -0.20617,0.226385 -0.469621,0.353515 -0.611328,0.353515 H 18.513672 c -0.14925,0 -0.454516,-0.122835 -0.681641,-0.328125 -0.227124,-0.205289 -0.355469,-0.468305 -0.355469,-0.609375 V 29.998047 c 0,-0.147438 0.123906,-0.451347 0.330079,-0.677735 0.20617,-0.226385 0.469621,-0.355468 0.611328,-0.355468 z" /></g><path
       style="fill:#abd0e3;fill-opacity:1;stroke:#a9d1e5;stroke-width:0.125;stroke-opacity:1"
       d="m 20.528809,10.416016 c -0.643045,0.801028 -0.196222,1.942484 -0.328858,2.896484 0,2.31665 0,4.633301 0,6.949951 -2.044216,0.05585 -4.114515,-0.112056 -6.142334,0.08447 -1.755807,0.755195 -3.408341,2.224893 -3.795166,4.153076 0,18.708334 0,37.416666 0,56.125 0.537064,1.957664 2.238269,3.525282 4.152588,4.112549 23.723307,0 47.446615,0 71.169922,0 1.913983,-0.587658 3.615925,-2.154575 4.152588,-4.112549 0,-18.75 0,-37.5 0,-56.25 -0.537064,-1.957663 -2.238269,-3.525283 -4.152588,-4.112549 -1.928304,0 -3.856609,0 -5.784912,0 -0.02586,-3.10421 0.05159,-6.224828 -0.03873,-9.318799 C 79.464556,9.8533738 78.080684,10.389533 77.25,10.262451 c -3.787569,0.0258 -7.591531,-0.05161 -11.368848,0.03873 -1.090278,0.29676 -0.55412,1.680632 -0.681201,2.511316 0,2.483317 0,4.966634 0,7.449951 -10.133301,0 -20.266601,0 -30.399902,0 -0.02586,-3.10421 0.05159,-6.224828 -0.03873,-9.318799 C 34.464556,9.8533738 33.080684,10.389533 32.25,10.262451 c -3.787569,0.0258 -7.591531,-0.05161 -11.368848,0.03873 -0.117448,0.03828 -0.234896,0.07656 -0.352343,0.114832 z m 28.899657,17.884033 c 10.472169,0 20.944336,0 31.416505,0 0.831079,0.385928 1.586948,1.186203 1.35498,2.168457 -0.02625,15.294808 0.05847,30.616695 -0.05835,45.894775 -0.07218,0.852301 0.19292,1.925539 -0.710692,2.4729 -0.729472,0.601105 -1.773554,0.22103 -2.624469,0.349094 -18.966973,0.139024 -37.935358,0.109954 -56.902372,-0.01274 -1.32292,-0.05163 -2.671864,0.04441 -3.982681,-0.120293 -0.952935,-0.382055 -1.283088,-1.436981 -1.12156,-2.380615 0.02079,-15.73291 0.04162,-31.46582 0.06248,-47.198731 0.418402,-0.730774 1.138568,-1.405081 2.047607,-1.172851 10.172852,0 20.345703,0 30.518554,0 z"
       id="path34403" /><path
       style="fill:#ededee;fill-opacity:1;stroke:#ededee;stroke-width:0.125;stroke-opacity:1"
       d="m 20.528809,10.416016 c -0.643045,0.801028 -0.196222,1.942484 -0.328858,2.896484 0,2.31665 0,4.633301 0,6.949951 -2.044216,0.05585 -4.114515,-0.112056 -6.142334,0.08447 -1.755807,0.755195 -3.408341,2.224893 -3.795166,4.153076 0,18.708334 0,37.416666 0,56.125 0.537064,1.957664 2.238269,3.525282 4.152588,4.112549 23.723307,0 47.446615,0 71.169922,0 1.913983,-0.587658 3.615925,-2.154575 4.152588,-4.112549 0,-18.75 0,-37.5 0,-56.25 -0.537064,-1.957663 -2.238269,-3.525283 -4.152588,-4.112549 -1.928304,0 -3.856609,0 -5.784912,0 -0.02586,-3.10421 0.05159,-6.224828 -0.03873,-9.318799 C 79.464556,9.8533738 78.080684,10.389533 77.25,10.262451 c -3.787569,0.0258 -7.591531,-0.05161 -11.368848,0.03873 -1.090278,0.29676 -0.55412,1.680632 -0.681201,2.511316 0,2.483317 0,4.966634 0,7.449951 -10.133301,0 -20.266601,0 -30.399902,0 -0.02586,-3.10421 0.05159,-6.224828 -0.03873,-9.318799 C 34.464556,9.8533738 33.080684,10.389533 32.25,10.262451 c -3.787569,0.0258 -7.591531,-0.05161 -11.368848,0.03873 -0.117448,0.03828 -0.234896,0.07656 -0.352343,0.114832 z m 28.899657,17.884033 c 10.472169,0 20.944336,0 31.416505,0 0.831079,0.385928 1.586948,1.186203 1.35498,2.168457 -0.02625,15.294808 0.05847,30.616695 -0.05835,45.894775 -0.07218,0.852301 0.19292,1.925539 -0.710692,2.4729 -0.729472,0.601105 -1.773554,0.22103 -2.624469,0.349094 -18.966973,0.139024 -37.935358,0.109954 -56.902372,-0.01274 -1.32292,-0.05163 -2.671864,0.04441 -3.982681,-0.120293 -0.952935,-0.382055 -1.283088,-1.436981 -1.12156,-2.380615 0.02079,-15.73291 0.04162,-31.46582 0.06248,-47.198731 0.418402,-0.730774 1.138568,-1.405081 2.047607,-1.172851 10.172852,0 20.345703,0 30.518554,0 z"
       id="path4990" /></g></svg>
