<svg version="1.2" xmlns="http://www.w3.org/2000/svg" viewBox="0 0 82 77" width="82" height="77">
	<title>habits_icon-svg</title>
	<defs>
		<clipPath clipPathUnits="userSpaceOnUse" id="cp1">
			<path d=""/>
		</clipPath>
		<clipPath clipPathUnits="userSpaceOnUse" id="cp2">
			<path d=""/>
		</clipPath>
		<clipPath clipPathUnits="userSpaceOnUse" id="cp3">
			<path d="m81.5 0.35v76.15h-81v-76.15zm-39.99 36.14q0 0.07 0 0.14c0.1 0.49 0.29 0.95 0.46 1.42 0.16 0.42 0.36 0.94 0.52 1.36q0.71 1.94 1.43 3.87c0.22 0.58 0.8 0.36 0.58-0.22q-0.72-1.93-1.43-3.87-0.36-0.94-0.7-1.89c-0.03-0.07-0.2-0.55-0.23-0.71q-0.01-0.06-0.01-0.13c-0.02-0.31-0.18-0.46-0.34-0.45-0.15 0.01-0.3 0.17-0.28 0.48z"/>
		</clipPath>
	</defs>
	<style>
		.s0 { fill: #ececec } 
		.s1 { fill: #000000 } 
		.s2 { fill: #ededee;stroke: #ededee } 
		.s3 { fill: #abd0e3;stroke: #a9d1e5;stroke-width: .4 } 
		.s4 { fill: #ededee;stroke: #ededee;stroke-width: .4 } 
	</style>
	<g id="layer1">
		<path id="path29798" class="s0" d="m39 39h25v22h-25"/>
		<g id="Clip-Path: path32078" clip-path="url(#cp1)">
		</g>
		<g id="Clip-Path: path32080" clip-path="url(#cp2)">
		</g>
	</g>
	<g id="g32126">
		<path id="path34035" class="s1" d=""/>
		<g id="g34031">
			<g id="Clip-Path: path34040" clip-path="url(#cp3)">
				<path id="path34040" fill-rule="evenodd" class="s2" d="m70.9 0.4c0.1 0 0.2 0 0.4 0.1 0.1 0.1 0.2 0.3 0.2 0.5v9.5h4.5c1.4 0 2.7 0.7 3.7 1.8 1.1 1 1.8 2.3 1.8 3.7v55c0 1.4-0.7 2.7-1.8 3.7-1 1.1-2.3 1.8-3.7 1.8h-70c-1.4 0-2.7-0.7-3.7-1.8-1.1-1-1.8-2.3-1.8-3.7v-55c0-1.4 0.7-2.7 1.8-3.7 1-1.1 2.3-1.8 3.7-1.8h4.5v-10h16v10h29v-10h14.4q0.1 0 0.5-0.1 0.1 0 0.3 0 0.1-0.1 0.2 0zm-0.7 1.1h-0.1-13.6v10h-31v-10h-14v10h-5.5c-1 0-2.1 0.6-3 1.5-0.9 0.9-1.5 2-1.5 3v55c0 1 0.6 2.1 1.5 3 0.9 0.9 2 1.5 3 1.5h70c1 0 2.1-0.6 3-1.5 0.9-0.9 1.5-2 1.5-3v-55c0-1-0.6-2.1-1.5-3-0.9-0.9-2-1.5-3-1.5h-5.5v-10.1c-0.2 0-0.3 0.1-0.3 0.1zm1.3 17.5c0.5 0 0.9 0.3 1.3 0.6 0.4 0.3 0.7 0.8 0.7 1.3v47.6c0 0.5-0.3 0.9-0.6 1.3-0.3 0.4-0.8 0.7-1.3 0.7h-62.1c-0.5 0-0.9-0.3-1.3-0.6-0.4-0.3-0.7-0.8-0.7-1.3v-47.6c0-0.5 0.3-1 0.6-1.3 0.3-0.4 0.8-0.7 1.3-0.7zm-62.7 1.3c-0.2 0.2-0.3 0.6-0.3 0.7v47.6c0 0.1 0.1 0.4 0.4 0.6 0.2 0.2 0.5 0.3 0.6 0.3h62.1c0.2 0 0.4-0.1 0.6-0.3 0.2-0.3 0.4-0.6 0.4-0.7v-47.6c0-0.1-0.2-0.4-0.4-0.6-0.2-0.2-0.5-0.3-0.7-0.3h-62.1c-0.1 0-0.4 0.1-0.6 0.3z"/>
			</g>
		</g>
		<path id="path34403" fill-rule="evenodd" class="s3" d="m11.9 1.3c3.8-0.1 7.6 0 11.3 0 0.9 0.1 2.3-0.4 2.6 0.6 0.1 3.1 0 6.3 0 9.4q15.2 0 30.4 0 0-3.8 0-7.5c0.1-0.8-0.4-2.2 0.7-2.5 3.8-0.1 7.6 0 11.3 0 0.9 0.1 2.3-0.4 2.6 0.6 0.1 3.1 0 6.3 0 9.4q2.9 0 5.8 0c1.9 0.5 3.6 2.1 4.1 4.1q0 28.1 0 56.2c-0.5 2-2.2 3.5-4.1 4.1q-35.6 0-71.2 0c-1.9-0.5-3.6-2.1-4.1-4.1q0-28 0-56.1c0.3-1.9 2-3.4 3.8-4.2 2-0.1 4.1 0 6.1 0q0-3.5 0-7c0.1-0.9-0.3-2.1 0.3-2.9q0.2 0 0.4-0.1zm-2 18c-0.9-0.2-1.6 0.4-2 1.2q-0.1 23.6-0.1 47.2c-0.2 0.9 0.2 2 1.1 2.4 1.3 0.1 2.7 0 4 0.1 19 0.1 37.9 0.1 56.9 0 0.9-0.1 1.9 0.2 2.6-0.4 0.9-0.5 0.7-1.6 0.7-2.4 0.2-15.3 0.1-30.6 0.1-45.9 0.2-1-0.5-1.8-1.4-2.2q-15.7 0-31.4 0-15.2 0-30.5 0z"/>
		<path id="path4990" fill-rule="evenodd" class="s4" d="m11.9 1.3c3.8-0.1 7.6 0 11.3 0 0.9 0.1 2.3-0.4 2.6 0.6 0.1 3.1 0 6.3 0 9.4q15.2 0 30.4 0 0-3.8 0-7.5c0.1-0.8-0.4-2.2 0.7-2.5 3.8-0.1 7.6 0 11.3 0 0.9 0.1 2.3-0.4 2.6 0.6 0.1 3.1 0 6.3 0 9.4q2.9 0 5.8 0c1.9 0.5 3.6 2.1 4.1 4.1q0 28.1 0 56.2c-0.5 2-2.2 3.5-4.1 4.1q-35.6 0-71.2 0c-1.9-0.5-3.6-2.1-4.1-4.1q0-28 0-56.1c0.3-1.9 2-3.4 3.8-4.2 2-0.1 4.1 0 6.1 0q0-3.5 0-7c0.1-0.9-0.3-2.1 0.3-2.9q0.2 0 0.4-0.1zm-2 18c-0.9-0.2-1.6 0.4-2 1.2q-0.1 23.6-0.1 47.2c-0.2 0.9 0.2 2 1.1 2.4 1.3 0.1 2.7 0 4 0.1 19 0.1 37.9 0.1 56.9 0 0.9-0.1 1.9 0.2 2.6-0.4 0.9-0.5 0.7-1.6 0.7-2.4 0.2-15.3 0.1-30.6 0.1-45.9 0.2-1-0.5-1.8-1.4-2.2q-15.7 0-31.4 0-15.2 0-30.5 0z"/>
	</g>
</svg>