<svg version="1.2" xmlns="http://www.w3.org/2000/svg" viewBox="0 0 20 18" width="20" height="18">
	<title>morning-svg</title>
	<style>
		.s0 { fill: none;stroke: #ededee;stroke-linecap: round;stroke-linejoin: bevel;stroke-width: 1.3 } 
		.s1 { fill: none;stroke: #ededee;stroke-linecap: round;stroke-linejoin: bevel;stroke-width: 1.2 } 
		.s2 { fill: none;stroke: #ededee;stroke-linecap: round;stroke-linejoin: bevel;stroke-width: .4 } 
	</style>
	<g id="layer1">
		<path id="path18804" class="s0" d="m10 1l-2 2h5l-2-2zm-6.4 2.9l-0.8 0.7-0.1 2.8 3.7-3.3zm14.2 0l-2.8 0.1 3.7 3.4-0.1-2.9-0.4-0.3zm-7.2 1.3q-0.6 0-1.1 0.1c-0.9 0.2-1.8 0.7-2.4 1.4-0.7 0.7-1 1.7-1.2 2.7-0.1 0.4 0 1.4 0 1.4h9.5c0 0 0.1-1 0-1.4-0.2-1-0.6-2-1.2-2.7-0.6-0.7-1.5-1.2-2.4-1.4q-0.6-0.1-1.2-0.1zm-9.6 5.8h19z"/>
		<path id="path19657" class="s1" d="m5 16.9l6-3 5 3"/>
		<path id="path19659" class="s2" d=""/>
		<path id="rect21219" class="s1" d="m9 2h3v1h-3z"/>
		<path id="rect21221" class="s1" d="m17.4 4.2l1.2 1.6-0.8 0.6-1.2-1.6z"/>
		<path id="rect21221-3" class="s1" d="m4.8 4.4l-1.2 1.6-0.8-0.6 1.2-1.6z"/>
	</g>
</svg>