<svg xmlns="http://www.w3.org/2000/svg" xmlns:xlink="http://www.w3.org/1999/xlink" viewBox="0,0,256,256" width="40px" height="40px" fill-rule="nonzero"><g fill="#878990" fill-rule="nonzero" stroke="none" stroke-width="1" stroke-linecap="butt" stroke-linejoin="miter" stroke-miterlimit="10" stroke-dasharray="" stroke-dashoffset="0" font-family="none" font-weight="none" font-size="none" text-anchor="none" style="mix-blend-mode: normal"><g transform="scale(5.12,5.12)"><path d="M32.21484,2.0625l-4.35937,1.71289l0.76172,3.81445c-0.29696,0.2994 -0.61472,0.63885 -0.95117,1.00781l-3.75586,-0.85937l-1.85742,4.33203l3.25391,2.16797c-0.03075,0.49864 -0.02973,0.99978 0,1.49805l-3.34375,2.04883l1.71289,4.35938l3.8125,-0.76172c0.31067,0.36772 0.65049,0.70624 1.01758,1.01758l-0.86719,3.79102l4.33203,1.85547l2.16992,-3.25391c0.49796,0.03063 0.99847,0.02969 1.49609,0l2.04883,3.34375l4.36719,-1.71484l-0.86719,-4.11328c0.36349,-0.30742 0.6975,-0.64326 1.00586,-1.00586l3.89258,0.97461l0.33594,-0.7832l1.53906,-3.5957l-3.36523,-2.0625c0.02922,-0.48982 0.02922,-0.98283 0,-1.47266l3.34375,-2.04883l-1.71875,-4.37695l-3.91602,0.87109c-0.30835,-0.36388 -0.64409,-0.6993 -1.00781,-1.00781l0.86523,-3.79102l-4.34961,-1.86523l-2.06836,3.26563c-0.46248,-0.04556 -0.95888,-0.02677 -1.4707,0.00977zM31.38477,4.53711l1.83594,2.99414l0.69531,-0.1543c0.70859,-0.15746 1.36536,-0.08332 2.27344,0.01758l0.62109,0.06836l1.7793,-2.80859l1.25,0.53711l-0.76367,3.33594l0.54297,0.38672c0.61203,0.43716 1.12924,0.95438 1.56641,1.56641l0.38477,0.53906l3.41211,-0.75781l0.48047,1.22461l-2.92773,1.79297l0.07031,0.63086c0.09282,0.83536 0.09282,1.54355 0,2.37891l-0.07031,0.63086l2.9043,1.78125l-0.52344,1.2207l-3.43359,-0.85742l-0.39648,0.55469c-0.43717,0.61203 -0.95438,1.12924 -1.56641,1.56641l-0.5332,0.38086l0.76172,3.61133l-1.23437,0.48438l-1.79297,-2.92578l-0.63086,0.07031c-0.83536,0.09282 -1.54355,0.09282 -2.37891,0l-0.60547,-0.06836l-1.87695,2.81445l-1.26758,-0.54297l0.76172,-3.33594l-0.54102,-0.38672c-0.61203,-0.43716 -1.1312,-0.95633 -1.56836,-1.56836l-0.375,-0.52539l-3.31445,0.66211l-0.48633,-1.24023l2.92578,-1.79492l-0.07031,-0.63086c-0.09282,-0.83536 -0.09282,-1.54355 0,-2.37891l0.06836,-0.60547l-2.81445,-1.875l0.54297,-1.26953l3.27539,0.74805l0.39453,-0.45703c0.56937,-0.66427 1.14648,-1.24414 1.64648,-1.74414l0.37891,-0.37891l-0.64062,-3.20312zM35,10c-2.74545,0 -5,2.25455 -5,5c0,2.74546 2.25455,5 5,5c2.74546,0 5,-2.25455 5,-5c0,-2.74545 -2.25455,-5 -5,-5zM35,12c1.65454,0 3,1.34545 3,3c0,1.65454 -1.34546,3 -3,3c-1.65454,0 -3,-1.34546 -3,-3c0,-1.65455 1.34546,-3 3,-3zM13.54492,20l-0.64844,4.11328c-0.54108,0.17419 -1.05997,0.39065 -1.55664,0.65625l-3.44531,-2.47656l-3.49023,3.48828l2.36914,3.44336c-0.26745,0.53617 -0.50038,1.06559 -0.67969,1.58984l-4.09375,0.75391v4.86328l4.10742,0.75781c0.17388,0.54369 0.39189,1.06344 0.6582,1.5625l-2.48242,3.3457l3.49805,3.49805l3.44336,-2.36914c0.53076,0.26475 1.05491,0.49394 1.57422,0.67188l0.64648,4.10156h4.88672l0.75781,-4.10742c0.54615,-0.17476 1.06927,-0.39417 1.57031,-0.66211l3.44531,2.47656l3.50195,-3.5l-2.47461,-3.44531c0.26334,-0.5303 0.49446,-1.05376 0.67188,-1.57227l4.19531,-0.75391v-0.83594v-4.05664l-4.21484,-0.64844c-0.17409,-0.54021 -0.3891,-1.05877 -0.6543,-1.55469l2.4668,-3.43164l-3.47656,-3.62695l-3.45898,2.48633c-0.52593,-0.26121 -1.04602,-0.4897 -1.56055,-0.66602l-0.64648,-4.10156zM15.25391,22h1.49219l0.56055,3.55664l0.57617,0.19141c0.9,0.3 1.72011,0.58337 2.38672,1l0.57031,0.35547l3.03906,-2.18555l1.12305,1.17383l-2.20508,3.06836l0.35547,0.57031c0.44839,0.71742 0.80133,1.52492 0.9707,2.28711l0.14844,0.66602l3.72852,0.57422v1.50586l-3.66016,0.65625l-0.18945,0.56445c-0.3,0.9 -0.58142,1.71816 -0.99805,2.38477l-0.35547,0.57031l2.19531,3.05469l-1.09766,1.09766l-3.05469,-2.19531l-0.57031,0.35547c-0.71742,0.44839 -1.52492,0.80328 -2.28711,0.97266l-0.64648,0.14258l-0.66797,3.63281h-1.51367l-0.56055,-3.55664l-0.57812,-0.19141c-0.9,-0.3 -1.71816,-0.58337 -2.38477,-1l-0.55664,-0.34766l-3.05469,2.09961l-1.10156,-1.10156l2.19141,-2.95508l-0.36133,-0.57812c-0.44839,-0.71742 -0.80328,-1.52297 -0.97266,-2.28516l-0.14258,-0.64648l-3.63281,-0.66992v-1.53516l3.5625,-0.65625l0.18555,-0.56055c0.3,-0.9 0.58337,-1.71816 1,-2.38477l0.34766,-0.55664l-2.09961,-3.05469l1.10938,-1.11133l3.05469,2.19531l0.57031,-0.35547c0.71742,-0.44839 1.52492,-0.80328 2.28711,-0.97266l0.66406,-0.14648zM16,29c-1.58333,0 -2.89811,0.62976 -3.74805,1.58594c-0.84994,0.95618 -1.25195,2.19184 -1.25195,3.41406c0,1.22222 0.40201,2.45788 1.25195,3.41406c0.84994,0.95618 2.16471,1.58594 3.74805,1.58594c1.58333,0 2.89811,-0.62976 3.74805,-1.58594c0.84994,-0.95618 1.25195,-2.19184 1.25195,-3.41406c0,-1.22222 -0.40201,-2.45788 -1.25195,-3.41406c-0.84994,-0.95618 -2.16471,-1.58594 -3.74805,-1.58594zM16,31c1.08333,0 1.76856,0.37024 2.25195,0.91406c0.48339,0.54382 0.74805,1.30816 0.74805,2.08594c0,0.77778 -0.26465,1.54212 -0.74805,2.08594c-0.48339,0.54382 -1.16862,0.91406 -2.25195,0.91406c-1.08333,0 -1.76856,-0.37024 -2.25195,-0.91406c-0.48339,-0.54382 -0.74805,-1.30816 -0.74805,-2.08594c0,-0.77778 0.26465,-1.54212 0.74805,-2.08594c0.48339,-0.54382 1.16862,-0.91406 2.25195,-0.91406z"></path></g></g></svg>